# xmcd CD database file
#
# Track frame offsets:
#	187
#	5570
#	27232
#	48800
#	71720
#	93687
#	103007
#	119532
#	143027
#	164770
#
# Disc length: 2475 seconds
#
# Revision: 0
# Processed by: cddbd v1.5.1PL0 Copyright (c) Steve Scherf et al.
# Submitted via: CDex 1.51
#
DISCID=8b09a90a
DTITLE=BOSSANOVA CASSANOVA - TRIP
DYEAR=1994
DGENRE=JPop
TTITLE0=INTRODUCTION(Instrumental)
TTITLE1=Shining On My Love
TTITLE2=恋のゆくえ
TTITLE3=Sea Side Vacation
TTITLE4=想い出にならない…
TTITLE5=Motel No.9(Instrumental)
TTITLE6=Lady LAYLA
TTITLE7=You Will Never Know
TTITLE8=真夏の太陽
TTITLE9=I Love You More Than You
EXTD=YEAR: 1994
EXTT0=
EXTT1=
EXTT2=
EXTT3=
EXTT4=
EXTT5=
EXTT6=
EXTT7=
EXTT8=
EXTT9=
PLAYORDER=
